HIERARCHY
ROOT Hips
{
	OFFSET	0.00	0.00	0.00
	CHANNELS 6 Xposition Yposition Zposition Zrotation Xrotation Yrotation
	JOINT LeftUpLeg
	{
		OFFSET	 0.126116	-0.014019	-0.065224
		CHANNELS 3 Zrotation Xrotation Yrotation
		JOINT LeftLeg
		{
			OFFSET	 0.000000	 0.000000	 0.569914
			CHANNELS 3 Zrotation Xrotation Yrotation
			JOINT LeftFoot
			{
				OFFSET	 0.000000	 0.000000	 0.544423
				CHANNELS 3 Zrotation Xrotation Yrotation
				JOINT LeftToeBase
				{
					OFFSET	 0.000000	 0.000000	 0.207117
					CHANNELS 3 Zrotation Xrotation Yrotation
					End Site
					{
						OFFSET	 0.000000	 0.000000	 0.207117
					}
				}
			}
		}
	}
	JOINT RightUpLeg
	{
		OFFSET	-0.124023	-0.008373	-0.065224
		CHANNELS 3 Zrotation Xrotation Yrotation
		JOINT RightLeg
		{
			OFFSET	 0.000000	 0.000000	 0.570047
			CHANNELS 3 Zrotation Xrotation Yrotation
			JOINT RightFoot
			{
				OFFSET	 0.000000	 0.000000	 0.544354
				CHANNELS 3 Zrotation Xrotation Yrotation
				JOINT RightToeBase
				{
					OFFSET	 0.000000	 0.000000	 0.207540
					CHANNELS 3 Zrotation Xrotation Yrotation
					End Site
					{
						OFFSET	 0.000000	 0.000000	 0.207540
					}
				}
			}
		}
	}
	JOINT Spine
	{
		OFFSET	 0.000184	-0.007763	 0.117403
		CHANNELS 3 Zrotation Xrotation Yrotation
		JOINT Spine1
		{
			OFFSET	 0.000000	 0.000000	 0.137269
			CHANNELS 3 Zrotation Xrotation Yrotation
			JOINT Spine2
			{
				OFFSET	 0.000000	 0.000000	 0.156879
				CHANNELS 3 Zrotation Xrotation Yrotation
				JOINT LeftShoulder
				{
					OFFSET	 0.080501	-0.002496	 0.160144
					CHANNELS 3 Zrotation Xrotation Yrotation
					JOINT LeftArm
					{
						OFFSET	 0.000000	 0.000000	 0.164363
						CHANNELS 3 Zrotation Xrotation Yrotation
						JOINT LeftForeArm
						{
							OFFSET	 0.000000	 0.000000	 0.364576
							CHANNELS 3 Zrotation Xrotation Yrotation
							JOINT LeftHand
							{
								OFFSET	 0.000000	 0.000000	 0.360812
								CHANNELS 3 Zrotation Xrotation Yrotation
								JOINT LeftHandIndex1
								{
									OFFSET	 0.000000	 0.000000	 0.086006
									CHANNELS 3 Zrotation Xrotation Yrotation
									JOINT LeftHandIndex2
									{
										OFFSET	 0.000000	 0.000000	 0.047236
										CHANNELS 3 Zrotation Xrotation Yrotation
										JOINT LeftHandIndex3
										{
											OFFSET	-0.004284	-0.000551	 0.038166
											CHANNELS 3 Zrotation Xrotation Yrotation
											End Site
											{
												OFFSET	-0.004284	-0.000551	 0.038166
											}
										}
									}
								}
							}
						}
					}
				}
				JOINT Neck
				{
					OFFSET	 0.000000	 0.000000	 0.176489
					CHANNELS 3 Zrotation Xrotation Yrotation
					JOINT Head
					{
						OFFSET	 0.000000	-0.001747	 0.077940
						CHANNELS 3 Zrotation Xrotation Yrotation
						End Site
						{
							OFFSET	 0.000000	-0.001747	 0.077940
						}
					}
				}
				JOINT RightShoulder
				{
					OFFSET	-0.080363	 0.000306	 0.159706
					CHANNELS 3 Zrotation Xrotation Yrotation
					JOINT RightArm
					{
						OFFSET	 0.000000	 0.000000	 0.164196
						CHANNELS 3 Zrotation Xrotation Yrotation
						JOINT RightForeArm
						{
							OFFSET	 0.000000	 0.000000	 0.365611
							CHANNELS 3 Zrotation Xrotation Yrotation
							JOINT RightHand
							{
								OFFSET	 0.000000	 0.000000	 0.360648
								CHANNELS 3 Zrotation Xrotation Yrotation
								JOINT RightHandIndex1
								{
									OFFSET	 0.000000	 0.000000	 0.069977
									CHANNELS 3 Zrotation Xrotation Yrotation
									JOINT RightHandIndex2
									{
										OFFSET	 0.000000	 0.000000	 0.052305
										CHANNELS 3 Zrotation Xrotation Yrotation
										JOINT RightHandIndex3
										{
											OFFSET	 0.009002	-0.000782	 0.042196
											CHANNELS 3 Zrotation Xrotation Yrotation
											End Site
											{
												OFFSET	 0.009002	-0.000782	 0.042196
											}
										}
									}
								}
							}
						}
					}
				}
			}
		}
	}
}
MOTION
Frames:    5
Frame Time: 0.03333334
-0.000072	 0.043180	 1.276329	-0.087835	 2.392725	 0.456212	-2.825918	-5.458917	 178.890000	 2.296257	-13.027390	 0.611943	-0.056285	 71.149680	-0.144040	-2.385833	 28.452750	 0.000004	 10.411090	-5.086013	-179.025600	-0.794480	-11.677780	 0.882466	 5.296356	 70.177710	 1.038597	 2.384659	 28.388700	-0.000001	-6.571523	 6.347985	 1.364274	-3.075784	-3.143723	-0.181850	 9.554555	 5.940974	-0.604631	-91.190190	 69.931050	-177.875400	-8.512299	 3.589059	-15.100960	 25.377970	-4.306418	-15.947670	-10.949760	-30.754840	-4.989438	-2.027600	 6.559038	 9.033609	-5.188889	 0.308190	 3.541030	-5.234859	 0.342567	 0.430617	 4.327359	 17.412980	-6.568582	 4.667334	-13.298310	 2.185591	 89.043050	 68.879690	 177.424300	 9.033244	 7.902628	 2.705808	-24.768890	-11.201440	 32.396040	 8.881355	-30.827980	 7.431311	 1.803333	 3.979147	-15.098590	 4.898592	 3.004813	-9.310344	 5.224449	 0.395017	 2.014677
-0.000154	 0.043846	 1.276585	-0.080909	 2.524728	 0.458468	-2.829020	-5.584118	 178.870400	 2.266210	-12.916640	 0.600099	-0.062685	 71.007420	-0.105677	-2.385833	 28.452750	 0.000004	 10.392330	-5.196365	-178.993300	-0.791309	-11.543270	 0.873077	 5.288237	 70.039570	 1.041029	 2.384659	 28.388700	-0.000001	-6.697401	 6.454556	 1.393948	-3.099696	-3.426080	-0.199284	 9.598867	 6.341414	-0.658035	-91.155850	 69.693950	-177.795200	-8.293265	 3.616321	-15.268350	 25.185830	-4.381394	-16.460580	-10.857390	-31.589260	-5.192768	-2.027600	 6.559038	 9.033609	-5.188889	 0.308190	 3.541030	-5.234859	 0.342567	 0.430617	 4.397997	 18.032560	-6.763715	 4.739681	-13.748550	 2.200499	 88.996240	 68.553790	 177.327900	 8.798170	 7.899506	 2.955391	-24.698290	-11.241500	 32.644580	 8.739035	-31.538270	 7.457994	 1.803333	 3.979147	-15.098590	 4.898592	 3.004813	-9.310344	 5.224449	 0.395017	 2.014677
-0.000424	 0.046363	 1.277313	-0.058760	 2.976134	 0.473154	-2.844108	-6.066659	 178.793100	 2.165932	-12.621270	 0.564648	-0.084566	 70.547290	 0.019965	-2.385833	 28.452750	 0.000004	 10.326510	-5.622279	-178.889900	-0.779232	-11.151760	 0.846202	 5.279549	 69.585720	 1.024283	 2.384659	 28.388700	-0.000001	-7.130907	 6.820835	 1.488678	-3.186446	-4.287162	-0.238585	 9.757865	 7.659630	-0.846072	-91.034420	 68.883680	-177.524600	-7.446168	 3.955089	-16.122570	 24.561880	-4.536138	-17.889290	-10.623000	-34.388000	-5.972201	-2.027600	 6.559038	 9.033609	-5.188889	 0.308190	 3.541030	-5.234859	 0.342567	 0.430617	 4.657931	 20.148690	-7.440198	 4.999468	-15.283120	 2.253784	 88.830250	 67.440150	 177.003500	 7.977090	 8.165491	 3.908338	-24.495650	-11.345980	 33.365350	 8.279951	-33.940280	 7.594219	 1.803333	 3.979147	-15.098590	 4.898592	 3.004813	-9.310344	 5.224449	 0.395017	 2.014677
-0.000825	 0.049532	 1.277701	-0.010828	 3.566278	 0.512144	-2.906002	-6.902974	 178.667000	 2.158614	-12.672290	 0.565288	-0.246460	 70.309850	 0.203518	-2.385833	 28.452750	 0.000004	 10.227160	-6.354132	-178.799700	-0.777235	-11.011800	 0.836097	 5.308634	 69.209100	 0.979796	 2.384659	 28.388700	-0.000001	-7.459280	 7.161856	 1.569804	-3.233377	-5.155371	-0.310584	 9.762429	 8.813741	-0.995067	-90.950070	 68.296150	-177.355300	-6.579782	 4.916958	-17.208350	 23.907460	-4.513749	-18.801090	-10.862740	-37.396600	-7.088573	-2.027600	 6.559038	 9.033609	-5.188889	 0.308190	 3.541030	-5.234859	 0.342567	 0.430617	 4.707680	 21.900670	-7.955523	 5.294096	-16.685220	 2.365349	 88.676650	 66.358790	 176.740100	 7.019230	 8.819633	 4.894802	-24.173500	-11.269720	 33.885990	 8.003704	-36.493260	 7.947125	 1.803333	 3.979147	-15.098590	 4.898592	 3.004813	-9.310344	 5.224449	 0.395017	 2.014677
-0.001235	 0.053042	 1.277907	 0.038740	 4.177127	 0.557528	-3.017241	-7.851619	 178.521500	 2.129784	-12.869950	 0.576223	-0.420432	 70.134000	 0.381191	-2.385833	 28.452750	 0.000004	 10.125180	-7.194732	-178.716800	-0.775768	-11.006090	 0.835951	 5.376683	 68.874140	 0.892013	 2.384659	 28.388700	-0.000001	-7.768546	 7.503694	 1.640731	-3.268966	-5.827296	-0.350266	 9.746333	 9.857233	-1.138338	-90.869450	 67.740700	-177.201700	-5.649092	 6.123550	-18.772230	 23.302680	-4.328456	-19.077510	-11.334200	-40.336480	-8.412775	-2.027600	 6.559038	 9.033609	-5.188889	 0.308190	 3.541030	-5.234859	 0.342567	 0.430617	 4.741270	 23.599550	-8.444498	 5.599871	-18.060050	 2.495270	 88.520950	 65.285370	 176.489300	 6.022825	 9.691567	 6.119706	-23.893580	-11.099310	 34.131110	 7.822725	-39.003210	 8.424645	 1.803333	 3.979147	-15.098590	 4.898592	 3.004813	-9.310344	 5.224449	 0.395017	 2.014677
